<svg width="282" height="280" viewBox="0 0 282 280" fill="none" xmlns="http://www.w3.org/2000/svg">
<path d="M234.715 36.2812C261.473 59.6997 278.499 92.4257 281 128C282.878 167.611 271.636 203.241 245 233C219.313 260.99 184.89 277.176 146.935 279.105C114.331 280.374 81.5501 270.545 56 250C55.2353 249.393 55.2353 249.393 54.4551 248.774C43.5793 240.099 34.052 230.614 26.3398 218.961C25.0139 216.891 25.0139 216.891 23 215C12.2943 197.51 4.51184 178.416 1.99999 158C1.88913 157.171 1.77827 156.342 1.66406 155.488C1.34322 152.657 1.14958 149.846 0.999993 147C0.965994 146.358 0.931995 145.715 0.896965 145.054C-0.269246 119.302 5.81672 95.5539 18 73C18.5904 71.903 19.1808 70.806 19.7891 69.6758C36.6613 39.5907 67.3024 16.4518 100 6C148.456 -7.33506 196.627 4.27638 234.715 36.2812Z" fill="#1B1B1B"/>
<path d="M173.25 64.8125C174.851 66.1883 176.435 67.5836 178 69C179.048 69.9088 179.048 69.9088 180.117 70.8359C187.074 77.2512 192.244 85.4844 195.75 94.25C198.069 99.2229 202.806 101.811 207.137 104.926C210.738 107.534 212.85 109.084 215 113C215.118 116.085 215.004 119.026 214.687 122.098C215.126 126.173 216.959 127.354 220 130C231.519 141.558 239.938 154.44 245 170C241.32 170.973 239.196 171.049 235.687 169.562C234.641 169.131 234.641 169.131 233.574 168.691C233.055 168.463 232.535 168.235 232 168C233.67 172.135 235.219 175.493 238 179C239.896 182.093 240.465 184.371 240 188C238.321 190.282 237.398 190.929 234.582 191.434C225.448 191.446 219.864 189.006 213 183C218.822 189.351 224.657 192.244 233 194C231.604 197.373 230.076 199.042 227 201C223.215 202.262 220.998 202.516 217 202C213.769 199.936 210.917 197.479 208 195C200.483 189.738 192.592 188.639 183.625 188.562C168.723 188.119 157.242 183.287 146.797 172.402C142.69 166.912 139.877 159.763 139.437 152.875C140.684 144.291 143.803 136.197 150 130C149.313 130.277 148.626 130.554 147.918 130.84C147.017 131.202 146.116 131.564 145.187 131.938C144.294 132.297 143.401 132.657 142.48 133.027C134.751 136.058 125.749 136.391 117.746 134.047C110.347 130.466 106.685 125.181 103 118C102.64 117.345 102.281 116.69 101.91 116.016C99.6885 111.552 99.9151 107.851 100 103C122.143 93.451 122.143 93.451 134.125 97.5C139.768 100.01 146.175 104.35 149 110C152.806 109.328 156.352 108.273 160 107C159.394 106.785 158.788 106.569 158.164 106.348C155.223 104.516 154.697 102.613 153.375 99.4375C148.189 88.6109 139.09 82.1913 128 78C111.01 72.9802 92.5463 74.8489 76.7891 82.5742C70.3718 86.2646 66.4562 90.485 63 97C62.6262 97.6574 62.2523 98.3148 61.8672 98.9922C60.3247 102.564 60.5506 106.187 61 110C62.624 113.635 63.6611 114.774 67 117C72.6155 117.824 77.1995 117.161 82 114C84.1251 110.812 84.502 108.735 85 105C86.9687 106.199 86.9687 106.199 89 108C90.1229 112.797 89.4564 117.034 87.375 121.438C83.9334 125.151 80.6568 126.769 75.6328 127.469C68.1869 127.535 62.5331 127.352 57 122C51.7539 115.274 51.1495 109.319 52 101C54.3273 92.703 58.6599 85.6828 64 79C65.1543 77.5285 65.1543 77.5285 66.332 76.0273C89.8532 47.4753 144.08 42.1933 173.25 64.8125Z" fill="#FAFAFA"/>
<path d="M103 127C105.008 129.657 106.655 132.172 107.938 135.25C109.465 137.766 111.26 138.087 114 139C114.625 139.344 115.25 139.688 115.894 140.042C118.239 141.109 119.767 141.232 122.328 141.195C123.127 141.189 123.927 141.182 124.75 141.176C125.575 141.159 126.4 141.142 127.25 141.125C128.511 141.111 128.511 141.111 129.797 141.098C131.865 141.074 133.932 141.038 136 141C135.768 141.961 135.768 141.961 135.531 142.941C133.22 156.247 134.152 167.718 142 179C147.294 185.608 153.449 190.685 162 192C163.998 192.09 166 192.13 168 192.125C169.011 192.128 170.021 192.13 171.063 192.133C173.817 192.008 176.318 191.621 179 191C185.796 199.666 189.23 205.688 188 217C186.267 224.769 182.854 230.607 177 236C176.01 236.495 176.01 236.495 175 237C175.058 236.105 175.116 235.211 175.176 234.289C175.459 226.706 175.008 221.459 171.094 214.891C170 213 170 213 170 211C169.34 211 168.68 211 168 211C168.322 211.494 168.645 211.987 168.977 212.496C170.403 215.985 170.383 219.35 170.375 223.062C170.374 224.193 170.374 224.193 170.372 225.346C170.24 231.651 169.222 237.473 166 243C165.01 243.66 164.02 244.32 163 245C162.888 243.966 162.888 243.966 162.773 242.91C161.71 235.31 159.692 228.602 153.378 223.755C147.248 219.635 140.626 217.751 133.602 215.684C126.722 213.546 121.859 211.386 118.25 204.812C116.585 200.361 115.799 195.671 115 191C111.934 197.635 111.854 205.082 113.898 212.07C114.848 214.435 115.851 216.727 117 219C109.169 217.042 103.826 212.804 99.625 206C94.763 197.525 93.4082 188.796 95.6524 179.215C97.8656 173.069 101.426 168.599 106 164C96.0991 168.609 91.1899 172.818 87 183C86.2025 185.331 85.5737 187.601 85 190C84.34 190 83.68 190 83 190C77.6558 176.343 72.7726 162.701 76.8242 148.012C80.8543 138.919 88.2968 131.361 96.9571 126.645C99.4405 125.861 100.611 125.993 103 127Z" fill="#FAFAFA"/>
<path d="M106 123C107.376 124.29 108.708 125.627 110 127C110 127.66 110 128.32 110 129C110.701 129.268 111.402 129.536 112.125 129.812C115 131 115 131 117.699 132.547C125.424 135.948 135.444 134.941 143.25 132.062C144.834 131.376 146.417 130.689 148 130C149.326 129.637 150.657 129.293 152 129C151.092 129.949 150.185 130.897 149.25 131.875C144.127 137.81 140.508 146.599 140.668 154.496C141.845 163.372 145.675 170.978 152.258 176.996C157.448 180.789 163.149 183.37 169 186C170.337 186.659 171.673 187.322 173 188C172.505 189.485 172.505 189.485 172 191C172.66 191.66 173.32 192.32 174 193C163.184 193.494 155.997 192.915 147.687 185.625C140.119 178.532 134.195 170.909 133.613 160.234C133.32 146.317 133.32 146.317 136 141C135.01 141.33 134.02 141.66 133 142C124.101 142.747 116.159 143.024 109 137C105.54 133.225 105.727 129.683 105.895 124.793C105.929 124.201 105.964 123.61 106 123Z" fill="#232323"/>
<path d="M112 111C123.221 110.327 132.494 110.047 142 117C144.041 118.924 145.434 120.652 147 123C141.409 126.829 136.598 126.857 130 126C122.612 123.711 116.77 119.036 112 113C112 112.34 112 111.68 112 111Z" fill="#212121"/>
<path d="M167 125C170.016 125.269 172.997 125.612 176 126C176.643 126.076 177.286 126.151 177.948 126.229C180.097 126.493 182.234 126.805 184.375 127.125C185.077 127.205 185.779 127.286 186.502 127.368C188.523 127.695 188.523 127.695 192 129C194.612 133.553 195.47 137.807 196 143C195.237 142.196 194.474 141.391 193.688 140.562C190.674 138 188.414 137.64 184.5 137.438C178.574 137.125 175.44 135.575 171.309 131.215C167 126.346 167 126.346 167 125Z" fill="#1D1D1D"/>
<path d="M232 95C239.072 94.4007 239.072 94.4007 243 96.9375C245.333 100.51 245.739 102.647 245.48 106.844C244.669 110.484 243.025 111.94 240 114C236.562 115.125 236.562 115.125 233 115C229.398 112.732 227.405 111.301 226.125 107.187C226.084 106.466 226.043 105.744 226 105C227.485 105.99 227.485 105.99 229 107C231.057 107.241 231.057 107.241 233.188 107.125C234.446 107.084 235.704 107.042 237 107C237.47 102.296 237.47 102.296 235.625 98.1875C235.089 97.7956 234.553 97.4037 234 97C233.34 96.34 232.68 95.68 232 95Z" fill="#F2F2F2"/>
<path d="M115 190C115.33 190 115.66 190 116 190C116.193 190.869 116.387 191.738 116.586 192.633C116.846 193.785 117.107 194.938 117.375 196.125C117.63 197.262 117.885 198.399 118.148 199.57C118.946 202.784 119.908 205.876 121 209C119.68 209 118.36 209 117 209C116.67 209.66 116.34 210.32 116 211C115.01 211 114.02 211 113 211C110.662 206.324 111.163 198.731 112.672 193.809C113.5 192.188 113.5 192.188 115 190Z" fill="#2E2E2E"/>
<path d="M117 275C123.27 275 129.54 275 136 275C136 275.33 136 275.66 136 276C141.28 276.33 146.56 276.66 152 277C143.45 282.7 126.813 278.461 117 277C117 276.34 117 275.68 117 275Z" fill="#141213"/>
<path d="M193 130C193.984 132.18 193.984 132.18 194.75 134.875C195.013 135.759 195.276 136.644 195.547 137.555C196 140 196 140 195 143C194.237 142.216 193.474 141.433 192.688 140.625C190.091 137.927 190.091 137.927 187 136C187.99 135.67 188.98 135.34 190 135C189.34 134.67 188.68 134.34 188 134C187.375 131.938 187.375 131.938 187 130C190 129 190 129 193 130Z" fill="#333333"/>
<path d="M279 127C279.66 127.33 280.32 127.66 281 128C281.087 131.771 281.14 135.541 281.188 139.312C281.213 140.384 281.238 141.456 281.264 142.561C281.273 143.589 281.283 144.617 281.293 145.676C281.309 146.624 281.324 147.572 281.341 148.548C281 151 281 151 278 154C278.33 145.09 278.66 136.18 279 127Z" fill="#111011"/>
<path d="M212 182C212.592 182.41 213.183 182.82 213.793 183.242C214.583 183.781 215.373 184.32 216.188 184.875C216.965 185.409 217.742 185.942 218.543 186.492C222.549 188.95 226.138 190.206 230.812 190.625C231.603 190.7 232.393 190.775 233.207 190.852C233.799 190.901 234.39 190.95 235 191C234.34 192.32 233.68 193.64 233 195C224.987 193.427 218.79 190.925 213 185C212.67 184.01 212.34 183.02 212 182Z" fill="#515250"/>
<path d="M64 25C63 28 63 28 61.0625 29C60.3819 29.33 59.7013 29.66 59 30C58.01 31.485 58.01 31.485 57 33C55.705 34.1089 54.3675 35.1694 53 36.1875C52.2987 36.7173 51.5975 37.2471 50.875 37.793C49 39 49 39 47 39C48.5512 34.965 51.1656 32.9668 54.5 30.3125C55.4797 29.5249 56.4594 28.7373 57.4688 27.9258C61.3144 25 61.3144 25 64 25Z" fill="#151515"/>
<path d="M167 125C169.97 125.33 172.94 125.66 176 126C176 128 176 130 176 132C172.369 131.697 171.219 131.236 168.688 128.5C167 126 167 126 167 125Z" fill="#2E2E2E"/>
<path d="M98 8C98 8.66 98 9.32 98 10C95.9395 10.8176 93.8765 11.6288 91.8125 12.4375C90.6639 12.89 89.5154 13.3424 88.332 13.8086C85.5288 14.8109 82.9289 15.5201 80 16C80 15.34 80 14.68 80 14C82.2463 12.991 84.4964 11.9926 86.75 11C87.3842 10.7138 88.0184 10.4277 88.6719 10.1328C92.0842 8.63993 94.2078 8 98 8Z" fill="#141414"/>
<path d="M168 211C168.66 211 169.32 211 170 211C172.943 215.501 172.943 215.501 174 218C173.312 220.062 173.312 220.062 172 222C171.617 223.991 171.274 225.991 171 228C170.67 228 170.34 228 170 228C169.939 227.108 169.879 226.216 169.816 225.297C169.733 224.126 169.649 222.956 169.562 221.75C169.481 220.59 169.4 219.43 169.316 218.234C169.068 215.69 168.719 213.44 168 211Z" fill="#474747"/>
<path d="M247 226C247.66 226 248.32 226 249 226C247.615 230.239 245.673 232.707 242.5 235.812C241.706 236.603 240.912 237.393 240.094 238.207C238 240 238 240 236 240C237.149 236.897 238.325 235.731 240.938 233.562C243.826 231.146 245.167 229.208 247 226Z" fill="#141313"/>
<path d="M201 14C202.939 14.9558 204.876 15.9148 206.812 16.875C207.891 17.4087 208.97 17.9423 210.082 18.4922C213 20 213 20 216 22C216 22.66 216 23.32 216 24C212.458 22.6341 209.074 21.0907 205.688 19.375C204.804 18.929 203.921 18.483 203.012 18.0234C202.348 17.6857 201.684 17.348 201 17C201 16.01 201 15.02 201 14Z" fill="#111111"/>
<path d="M55 248C55.8869 248.309 56.7738 248.619 57.6875 248.938C60.4671 249.829 63.1314 250.494 66 251C66.33 252.65 66.66 254.3 67 256C63.5885 255.385 61.4823 254.105 58.75 252C58.0436 251.464 57.3372 250.928 56.6094 250.375C56.0783 249.921 55.5472 249.468 55 249C55 248.67 55 248.34 55 248Z" fill="#161515"/>
<path d="M19 204C21.6389 207.185 24.1449 210.29 26 214C25.67 214.99 25.34 215.98 25 217C22.7643 214.764 21.7563 212.71 20.375 209.875C19.929 208.965 19.483 208.055 19.0234 207.117C18.6857 206.419 18.348 205.72 18 205C18.33 204.67 18.66 204.34 19 204Z" fill="#121011"/>
<path d="M43 40C43.66 40.33 44.32 40.66 45 41C43.882 42.3392 42.7554 43.6712 41.625 45C40.9985 45.7425 40.372 46.485 39.7266 47.25C38.8719 48.1162 38.8719 48.1162 38 49C37.34 49 36.68 49 36 49C37.555 45.1832 40.036 42.808 43 40Z" fill="#111111"/>
<path d="M3 119C3.33 119 3.66 119 4 119C4 122.3 4 125.6 4 129C3.01 129 2.02 129 1 129C1.66 125.7 2.32 122.4 3 119Z" fill="#121212"/>
<path d="M105 163C105.66 163.33 106.32 163.66 107 164C105.35 165.98 103.7 167.96 102 170C101.67 169.34 101.34 168.68 101 168C99.68 168.33 98.36 168.66 97 169C99.4592 166.365 101.578 164.255 105 163Z" fill="#3C3C3C"/>
<path d="M123.812 95.875C125.276 95.9021 125.276 95.9021 126.77 95.9297C127.506 95.9529 128.242 95.9761 129 96C129 96.33 129 96.66 129 97C125.7 97 122.4 97 119 97C118.67 97.66 118.34 98.32 118 99C117.01 99.66 116.02 100.32 115 101C115 100.34 115 99.68 115 99C114.34 98.67 113.68 98.34 113 98C116.772 96.2484 119.667 95.7751 123.812 95.875Z" fill="#CACACA"/>
<path d="M276 104C277.648 106.967 278.443 109.656 279 113C278.01 113.66 277.02 114.32 276 115C275.806 113.355 275.62 111.709 275.438 110.062C275.333 109.146 275.229 108.229 275.121 107.285C275.081 106.531 275.041 105.777 275 105C275.33 104.67 275.66 104.34 276 104Z" fill="#141112"/>
<path d="M20 69C20.99 69.33 21.98 69.66 23 70C21.68 72.31 20.36 74.62 19 77C18.34 77 17.68 77 17 77C17.6276 74.0712 18.5862 71.639 20 69Z" fill="#121212"/>
<path d="M3 161C3.66 161 4.32 161 5 161C5.33 163.97 5.66 166.94 6 170C5.34 170 4.68 170 4 170C3.67 167.03 3.34 164.06 3 161Z" fill="#121212"/>
<path d="M245 48C245.66 48 246.32 48 247 48C251 52.4706 251 52.4706 251 55C249.68 54.34 248.36 53.68 247 53C247 52.34 247 51.68 247 51C246.34 51 245.68 51 245 51C245 50.01 245 49.02 245 48Z" fill="#121011"/>
</svg>
